<svg width="119" height="119" viewBox="0 0 119 119" fill="none" xmlns="http://www.w3.org/2000/svg">
<path d="M27.2708 9.91663C23.9833 9.91663 20.8303 11.2226 18.5057 13.5473C16.181 15.872 14.875 19.0249 14.875 22.3125V96.6875C14.875 99.975 16.181 103.128 18.5057 105.453C20.8303 107.777 23.9833 109.083 27.2708 109.083H63.5163C61.3896 106.871 59.5897 104.367 58.1712 101.646H27.2708C25.9558 101.646 24.6946 101.123 23.7648 100.194C22.8349 99.2637 22.3125 98.0025 22.3125 96.6875H56.0936C55.3169 94.2743 54.8276 91.7778 54.6359 89.25H22.3125V22.3125C22.3125 20.9974 22.8349 19.7363 23.7648 18.8064C24.6946 17.8765 25.9558 17.3541 27.2708 17.3541H84.2917C85.6067 17.3541 86.8679 17.8765 87.7977 18.8064C88.7276 19.7363 89.25 20.9974 89.25 22.3125V54.6358C91.8349 54.8375 94.3141 55.3234 96.6875 56.0936V22.3125C96.6875 19.0249 95.3815 15.872 93.0568 13.5473C90.7322 11.2226 87.5792 9.91663 84.2917 9.91663H27.2708ZM114.042 86.7708C114.042 79.5381 111.168 72.6017 106.054 67.4874C100.94 62.3731 94.0035 59.5 86.7708 59.5C79.5382 59.5 72.6017 62.3731 67.4874 67.4874C62.3732 72.6017 59.5 79.5381 59.5 86.7708C59.5 94.0035 62.3732 100.94 67.4874 106.054C72.6017 111.168 79.5382 114.042 86.7708 114.042C94.0035 114.042 100.94 111.168 106.054 106.054C111.168 100.94 114.042 94.0035 114.042 86.7708ZM83.8652 74.8559L97.7783 83.9793C98.2113 84.2569 98.5502 84.6255 98.7948 85.085C99.0427 85.5345 99.1667 86.027 99.1667 86.5625C99.1672 87.0765 99.0448 87.5831 98.8097 88.0401C98.5827 88.4909 98.2449 88.8765 97.8279 89.1607L83.9099 98.6559C83.6689 98.8209 83.4049 98.9496 83.1264 99.0377C82.4821 99.244 81.784 99.2033 81.1679 98.9237C80.8134 98.7562 80.4898 98.5299 80.211 98.2543C79.9409 97.9631 79.7229 97.6276 79.5664 97.2626C79.4098 96.8908 79.3305 96.491 79.3333 96.0875V77.4541C79.3295 76.8572 79.4995 76.2721 79.8227 75.7702C80.1458 75.2683 80.6081 74.8714 81.153 74.6278C81.5851 74.4243 82.063 74.3378 82.539 74.3769C83.0149 74.4161 83.4723 74.5795 83.8652 74.851M29.75 29.75C29.75 28.4349 30.2724 27.1738 31.2023 26.2439C32.1321 25.314 33.3933 24.7916 34.7083 24.7916H74.375C75.69 24.7916 76.9512 25.314 77.8811 26.2439C78.8109 27.1738 79.3333 28.4349 79.3333 29.75V39.6666C79.3333 40.9817 78.8109 42.2428 77.8811 43.1727C76.9512 44.1026 75.69 44.625 74.375 44.625H34.7083C33.3933 44.625 32.1321 44.1026 31.2023 43.1727C30.2724 42.2428 29.75 40.9817 29.75 39.6666V29.75ZM37.1875 37.1875H71.8958V32.2291H37.1875V37.1875Z" fill="black"/>
</svg>
